<?xml version="1.0" encoding="utf-8"?>
<!-- Generator: Adobe Illustrator 21.0.2, SVG Export Plug-In . SVG Version: 6.00 Build 0)  -->
<svg version="1.1" id="Capa_1" xmlns="http://www.w3.org/2000/svg" xmlns:xlink="http://www.w3.org/1999/xlink" x="0px" y="0px"
	 viewBox="0 0 59.4 59.4" style="enable-background:new 0 0 59.4 59.4;" xml:space="preserve">
<style type="text/css">
	.st0{fill:#00BF03;}
</style>
<path class="st0" d="M58.4,26.6l-9.7-9V6.4h-8v3.8L29.7,0L1,26.6c-0.4,0.4-0.4,1-0.1,1.4c0.4,0.4,1,0.4,1.4,0.1l4.3-4v3.3v32h16
	V35.3c0-1.1,0.9-1.9,1.9-1.9h10.1c1.1,0,1.9,0.9,1.9,1.9v24.1h16v-32v-3.3l4.3,4c0.2,0.2,0.4,0.3,0.7,0.3c0.3,0,0.5-0.1,0.7-0.3
	C58.8,27.6,58.8,27,58.4,26.6z"/>
</svg>
