<?xml version="1.0" encoding="utf-8"?>
<!-- Generator: Adobe Illustrator 21.0.2, SVG Export Plug-In . SVG Version: 6.00 Build 0)  -->
<svg version="1.1" id="Capa_1" xmlns="http://www.w3.org/2000/svg" xmlns:xlink="http://www.w3.org/1999/xlink" x="0px" y="0px"
	 viewBox="0 0 489 489" style="enable-background:new 0 0 489 489;" xml:space="preserve">
<style type="text/css">
	.st0{fill:#990033;}
</style>
<g>
	<g>
		<path class="st0" d="M321.6,128.8c0-8.1-6.6-14.7-14.7-14.7h-56.8c-8.1,0-14.7,6.6-14.7,14.7v56.8c0,8.1,6.6,14.7,14.7,14.7h56.8
			c8.1,0,14.7-6.6,14.7-14.7V128.8z"/>
		<path class="st0" d="M443,128.8c0-8.1-6.6-14.7-14.7-14.7h-56.8c-8.1,0-14.7,6.6-14.7,14.7v56.8c0,8.1,6.6,14.7,14.7,14.7h56.8
			c8.1,0,14.7-6.6,14.7-14.7V128.8z"/>
		<path class="st0" d="M321.6,250.2c0-8.1-6.6-14.7-14.7-14.7h-56.8c-8.1,0-14.7,6.6-14.7,14.7V307c0,8.1,6.6,14.7,14.7,14.7h56.8
			c8.1,0,14.7-6.6,14.7-14.7V250.2z"/>
		<path class="st0" d="M443,250.2c0-8.1-6.6-14.7-14.7-14.7h-56.8c-8.1,0-14.7,6.6-14.7,14.7V307c0,8.1,6.6,14.7,14.7,14.7h56.8
			c8.1,0,14.7-6.6,14.7-14.7V250.2z"/>
		<path class="st0" d="M200.2,250.2c0-8.1-6.6-14.7-14.7-14.7h-56.8c-8.1,0-14.7,6.6-14.7,14.7V307c0,8.1,6.6,14.7,14.7,14.7h56.8
			c8.1,0,14.7-6.6,14.7-14.7V250.2z"/>
		<path class="st0" d="M306.9,356.9h-56.8c-8.1,0-14.7,6.6-14.7,14.7v56.8c0,8.1,6.6,14.7,14.7,14.7h56.8c8.1,0,14.7-6.6,14.7-14.7
			v-56.8C321.6,363.5,315,356.9,306.9,356.9z"/>
		<path class="st0" d="M371.5,443.1h56.8c8.1,0,14.7-6.6,14.7-14.7v-56.8c0-8.1-6.6-14.7-14.7-14.7h-56.8c-8.1,0-14.7,6.6-14.7,14.7
			v56.8C356.8,436.5,363.4,443.1,371.5,443.1z"/>
		<path class="st0" d="M185.5,356.9h-56.8c-8.1,0-14.7,6.6-14.7,14.7v56.8c0,8.1,6.6,14.7,14.7,14.7h56.8c8.1,0,14.7-6.6,14.7-14.7
			v-56.8C200.2,363.5,193.6,356.9,185.5,356.9z"/>
		<path class="st0" d="M163.7,82.7v80.9H82.8V82.7H163.7 M177.7,45.9H68.8C56.2,45.9,46,56.2,46,68.7v111.5c0,11.1,9,20.1,20.1,20.1
			h111.5c12.6,0,22.8-10.2,22.8-22.8V68.7C200.5,56.2,190.2,45.9,177.7,45.9L177.7,45.9z"/>
	</g>
</g>
</svg>
