<?xml version="1.0" encoding="iso-8859-1"?>
<!-- Generator: Adobe Illustrator 16.0.0, SVG Export Plug-In . SVG Version: 6.00 Build 0)  -->
<!DOCTYPE svg PUBLIC "-//W3C//DTD SVG 1.1//EN" "http://www.w3.org/Graphics/SVG/1.1/DTD/svg11.dtd">
<svg version="1.1" id="Capa_1" xmlns="http://www.w3.org/2000/svg" xmlns:xlink="http://www.w3.org/1999/xlink" x="0px" y="0px"
	 width="382.332px" height="382.332px" viewBox="0 0 382.332 382.332" style="enable-background:new 0 0 382.332 382.332;"
	 xml:space="preserve">
<g>
	<g>
		<path d="M306.519,13.674c0-3.44-1.473-3.866-3.288-0.94l-11.739,18.892c-1.814,2.926-5.127,3.193-7.393,0.6l-9.273-10.638
			c-2.26-2.594-6.12-2.773-8.622-0.405l-3.021,2.862c-2.503,2.368-6.845,2.749-9.712,0.846l-3.508-2.326
			c-2.862-1.9-7.854-2.6-11.131-1.553l-2.521,0.807c-3.282,1.047-8.488,0.746-11.625-0.673l-12.957-5.864
			c-3.143-1.413-7.18-0.204-9.03,2.701l-14.639,23.09c-1.845,2.904-3.641,2.487-4.016-0.935L180.51,7.694
			c-0.374-3.422-1.628-6.802-2.807-7.544c-1.179-0.743-2.835,1.352-3.702,4.689l-8.473,32.473c-0.868,3.331-3.194,3.76-5.194,0.959
			l-10.552-14.782c-2-2.807-4.899-2.594-6.476,0.466l-6.086,11.822c-1.577,3.063-3.413,2.808-4.098-0.566l-2.588-12.72
			c-0.685-3.374-2.749-3.772-4.606-0.893c-1.86,2.88-4.329,2.601-5.526-0.63l-2.177-5.885c-1.19-3.23-2.716-3.112-3.404,0.262
			l-4.153,20.414c-0.685,3.374-3.654,4.701-6.628,2.962l-4.135-2.42c-2.978-1.732-5.386-0.347-5.386,3.093v43.647h212V13.674z"/>
		<path d="M319.367,90.896c-1.735-1.163-4.177-1.62-6.431-1.62h-6.418h-212h-1.522c-5.992,0-10.948,4.396-10.948,10.388v0.186
			v14.367H63.199c-4.491,0-6.092,5.961-6.092,10.449v50.936c0,3.931,3.285,7.298,7.151,8.001l130.025,23.647v25.435h-11.269
			c-5.992,0-13.673,7.483-13.673,13.476v122.885c0,5.992,7.681,13.286,13.673,13.286h32.8c5.985,0,9.645-7.294,9.645-13.286V246.161
			c0-5.992-3.659-13.476-9.645-13.476h-9.062v-32.218c0-3.928-3.288-7.292-7.148-7.998l-130.028-23.65v-35.896h12.471v16.748
			c0,5.992,4.957,8.193,10.948,8.193h219.94c2.254,0,4.336,0.643,6.065-0.524c1.157-0.779,2.868-1.111,3.647-2.265
			c1.175-1.732,2.575-3.16,2.575-5.404V114.23V99.665c0-2.244-1.4-4.333-2.575-6.062C321.87,92.443,320.518,91.676,319.367,90.896z"
			/>
	</g>
</g>
<g>
</g>
<g>
</g>
<g>
</g>
<g>
</g>
<g>
</g>
<g>
</g>
<g>
</g>
<g>
</g>
<g>
</g>
<g>
</g>
<g>
</g>
<g>
</g>
<g>
</g>
<g>
</g>
<g>
</g>
</svg>
